<?xml version="1.0" standalone="no"?>
<!DOCTYPE svg PUBLIC "-//W3C//DTD SVG 20010904//EN"
 "http://www.w3.org/TR/2001/REC-SVG-20010904/DTD/svg10.dtd">
<svg version="1.0" xmlns="http://www.w3.org/2000/svg"
 width="125.000000pt" height="209.000000pt" viewBox="0 0 125.000000 209.000000"
 preserveAspectRatio="xMidYMid meet">

<g transform="translate(0.000000,209.000000) scale(0.100000,-0.100000)"
fill="#000000" stroke="none">
<path d="M415 1936 c-133 -40 -197 -68 -223 -94 l-25 -24 6 -227 c10 -342 25
-661 43 -911 22 -301 29 -315 194 -359 60 -17 106 -21 217 -21 231 0 365 33
417 103 20 27 20 42 26 730 3 386 4 708 2 715 -7 22 -114 70 -193 86 -41 8
-144 17 -229 21 -145 5 -160 4 -235 -19z m413 -43 c2 -8 21 -13 46 -13 31 0
53 -8 84 -31 23 -17 42 -37 42 -44 0 -25 -50 -53 -120 -69 -92 -21 -138 -20
-178 4 -32 20 -33 20 -22 1 5 -11 7 -22 3 -24 -16 -8 -173 5 -167 14 3 6 -5 7
-18 4 -31 -8 -230 32 -240 48 -23 36 18 77 80 80 20 1 43 7 49 14 7 6 43 14
80 18 38 3 75 8 83 10 8 2 73 3 144 2 93 -1 131 -5 134 -14z m-51 -476 c-10
-27 -107 -334 -107 -340 0 -4 41 -8 91 -9 l90 -3 -182 -262 c-101 -144 -185
-261 -186 -259 -2 2 21 87 52 189 30 102 55 188 55 191 0 3 -40 6 -90 6 -49 0
-90 4 -90 8 0 9 64 358 81 440 l10 52 141 0 c112 0 139 -3 135 -13z"/>
<path d="M578 1833 c-49 -8 -30 -22 27 -22 37 1 55 5 52 13 -4 12 -36 16 -79
9z"/>
</g>
</svg>
